<svg xmlns="http://www.w3.org/2000/svg" width="4.609" height="23.541" viewBox="0 0 4.609 23.541">
  <g id="Group_1334" data-name="Group 1334" transform="translate(-16.303 -131.158)" opacity="0.65">
    <g id="Group_875" data-name="Group 875" transform="translate(16.369 131.158)">
      <g id="Group_866" data-name="Group 866">
        <path id="Path_1162" data-name="Path 1162" d="M233.419,119.47H231.91a1.52,1.52,0,0,0-1.517,1.517V134.61a1.519,1.519,0,0,0,1.517,1.517h1.509a1.518,1.518,0,0,0,1.517-1.517V120.987A1.519,1.519,0,0,0,233.419,119.47Z" transform="translate(-230.393 -119.47)" fill="#fff"/>
      </g>
    </g>
    <g id="Group_876" data-name="Group 876" transform="translate(16.803 150.709)">
      <g id="Group_868" data-name="Group 868">
        <path id="Path_1163" data-name="Path 1163" d="M233.311,332.8h-2.327a.582.582,0,0,0-.582.582v2.327a.582.582,0,0,0,.582.582h2.327a.582.582,0,0,0,.582-.582v-2.327A.582.582,0,0,0,233.311,332.8Z" transform="translate(-230.403 -332.803)" fill="#fff" stroke="#fff" stroke-width="1"/>
      </g>
    </g>
  </g>
</svg>
