<svg xmlns="http://www.w3.org/2000/svg" xmlns:xlink="http://www.w3.org/1999/xlink" width="135.841" height="89.529" viewBox="0 0 135.841 89.529">
  <defs>
    <linearGradient id="linear-gradient" x1="0.168" y1="0.926" x2="1.072" y2="0.254" gradientUnits="objectBoundingBox">
      <stop offset="0" stop-color="#725c32"/>
      <stop offset="0.314" stop-color="#fdd993"/>
      <stop offset="0.394" stop-color="#ffd486"/>
      <stop offset="0.483" stop-color="#d4b377"/>
      <stop offset="0.661" stop-color="#eac787"/>
      <stop offset="0.834" stop-color="#947a49"/>
    </linearGradient>
  </defs>
  <g id="logo" transform="translate(-271.901 29.919)">
    <path id="Path_1403" data-name="Path 1403" d="M311.5,24h20.438L358.9-13.561,375.053,9.555l-24.631-.093L339.516,24h64.223S369.716-29.971,366.781-32.04a11.469,11.469,0,0,0-7.641-2.879,11.971,11.971,0,0,0-8.415,2.879C346.77-29.162,311.5,24,311.5,24Z" transform="translate(-17.682 5)" fill="url(#linear-gradient)" style="isolation: isolate"/>
    <g id="Group_2233" data-name="Group 2233" transform="translate(271.901 42.647)" style="isolation: isolate">
      <path id="Path_1404" data-name="Path 1404" d="M275.112,89.005h-6.1l-1.16,3.4h-3.7l6.286-16.51h3.224l6.321,16.51h-3.7Zm-5.161-2.755h4.222l-2.123-6.18Z" transform="translate(-264.151 -75.671)" fill="#fff"/>
      <path id="Path_1405" data-name="Path 1405" d="M299.955,86.59v5.817h-3.479V75.9h6.587a7.77,7.77,0,0,1,3.346.681,5.088,5.088,0,0,1,2.221,1.933,5.3,5.3,0,0,1,.777,2.852,4.693,4.693,0,0,1-1.7,3.827,7.186,7.186,0,0,1-4.7,1.4Zm0-2.755h3.108a3.1,3.1,0,0,0,2.1-.636,2.28,2.28,0,0,0,.726-1.814,2.687,2.687,0,0,0-.731-1.962,2.764,2.764,0,0,0-2.018-.771h-3.189Z" transform="translate(-279.066 -75.671)" fill="#fff"/>
      <path id="Path_1406" data-name="Path 1406" d="M328.4,86.59v5.817h-3.479V75.9h6.587a7.77,7.77,0,0,1,3.346.681,5.088,5.088,0,0,1,2.221,1.933,5.3,5.3,0,0,1,.777,2.852,4.693,4.693,0,0,1-1.7,3.827,7.185,7.185,0,0,1-4.7,1.4Zm0-2.755h3.108a3.1,3.1,0,0,0,2.1-.636,2.28,2.28,0,0,0,.726-1.814,2.688,2.688,0,0,0-.731-1.962,2.766,2.766,0,0,0-2.018-.771H328.4Z" transform="translate(-292.193 -75.671)" fill="#fff"/>
      <path id="Path_1407" data-name="Path 1407" d="M374.514,85.253h-6.681v4.422h7.841v2.733h-11.32V75.9h11.3v2.755h-7.818v3.934h6.681Z" transform="translate(-310.386 -75.671)" fill="#fff"/>
      <path id="Path_1408" data-name="Path 1408" d="M397.314,87.882a1.731,1.731,0,0,0-.7-1.48,9.221,9.221,0,0,0-2.5-1.089,17.912,17.912,0,0,1-2.865-1.128q-2.877-1.519-2.877-4.093a3.926,3.926,0,0,1,.771-2.387,5.023,5.023,0,0,1,2.215-1.638,8.507,8.507,0,0,1,3.242-.59,7.745,7.745,0,0,1,3.224.641,5.106,5.106,0,0,1,2.2,1.808,4.653,4.653,0,0,1,.783,2.654h-3.48a2.2,2.2,0,0,0-.73-1.763,3.049,3.049,0,0,0-2.053-.629,3.263,3.263,0,0,0-1.983.527,1.652,1.652,0,0,0-.708,1.389,1.588,1.588,0,0,0,.829,1.35,9.489,9.489,0,0,0,2.442,1.021,10.637,10.637,0,0,1,4.326,2.166,4.266,4.266,0,0,1,1.357,3.22,3.943,3.943,0,0,1-1.659,3.362,7.38,7.38,0,0,1-4.465,1.219,8.8,8.8,0,0,1-3.549-.7,5.6,5.6,0,0,1-2.441-1.91,4.814,4.814,0,0,1-.841-2.812h3.491q0,2.733,3.34,2.733a3.3,3.3,0,0,0,1.937-.493A1.593,1.593,0,0,0,397.314,87.882Z" transform="translate(-321.227 -75.477)" fill="#fff"/>
      <path id="Path_1409" data-name="Path 1409" d="M428.093,78.653H422.92V92.408h-3.48V78.653h-5.1V75.9h13.756Z" transform="translate(-333.45 -75.671)" fill="#fff"/>
      <path id="Path_1410" data-name="Path 1410" d="M449.288,89.005h-6.1l-1.16,3.4h-3.7l6.287-16.51h3.224l6.321,16.51h-3.7Zm-5.162-2.755h4.222l-2.122-6.18Z" transform="translate(-344.519 -75.671)" fill="#fff"/>
      <path id="Path_1411" data-name="Path 1411" d="M479.886,78.653h-5.173V92.408h-3.48V78.653h-5.1V75.9h13.756Z" transform="translate(-357.348 -75.671)" fill="#fff"/>
      <path id="Path_1412" data-name="Path 1412" d="M505.513,85.253h-6.681v4.422h7.841v2.733h-11.32V75.9h11.3v2.755h-7.818v3.934h6.681Z" transform="translate(-370.832 -75.671)" fill="#fff"/>
    </g>
  </g>
</svg>
