<svg xmlns="http://www.w3.org/2000/svg" xmlns:xlink="http://www.w3.org/1999/xlink" width="375" height="137" viewBox="0 0 375 137">
  <defs>
    <clipPath id="clip-path">
      <rect id="Rectangle_1696" data-name="Rectangle 1696" width="375" height="137" transform="translate(0 619)" fill="#fff" stroke="#707070" stroke-width="1"/>
    </clipPath>
  </defs>
  <g id="mask" transform="translate(0 -619)" clip-path="url(#clip-path)">
    <g id="Group_303" data-name="Group 303" transform="translate(3 89)">
      <g id="university" transform="translate(160 530.45)" opacity="0.09">
        <g id="Group_302" data-name="Group 302" transform="translate(0)">
          <g id="Group_301" data-name="Group 301">
            <path id="Path_861" data-name="Path 861" d="M187.733,271.9A2.273,2.273,0,0,0,190,274.176h9.088a2.273,2.273,0,0,0,2.272-2.272V258.272A2.273,2.273,0,0,0,199.093,256h-9.088a2.273,2.273,0,0,0-2.272,2.272V271.9Zm4.544-11.36h4.544v9.088h-4.544Z" transform="translate(-137.748 -187.839)" fill="#fff"/>
            <path id="Path_862" data-name="Path 862" d="M190.006,171.777h9.088a2.273,2.273,0,0,0,2.272-2.272V155.873a2.273,2.273,0,0,0-2.272-2.272h-9.088a2.273,2.273,0,0,0-2.272,2.272v13.632A2.272,2.272,0,0,0,190.006,171.777Zm2.272-13.632h4.544v9.088h-4.544Z" transform="translate(-137.749 -112.704)" fill="#fff"/>
            <path id="Path_863" data-name="Path 863" d="M122.909,42.844,155.819,23.1,188.73,42.844a2.272,2.272,0,0,0,2.34-3.895L158.091,19.162V4.544h11.36V9.088h-6.816a2.272,2.272,0,1,0,0,4.544h9.088A2.273,2.273,0,0,0,174,11.36V2.272A2.273,2.273,0,0,0,171.723,0h-15.9a2.273,2.273,0,0,0-2.272,2.272v16.89L120.568,38.95a2.272,2.272,0,0,0,2.34,3.894Z" transform="translate(-87.658)" fill="#fff"/>
            <path id="Path_864" data-name="Path 864" d="M62.56,274.177a2.273,2.273,0,0,0,2.272-2.272V258.273A2.273,2.273,0,0,0,62.56,256H53.472a2.273,2.273,0,0,0-2.272,2.272v4.544a2.272,2.272,0,0,0,4.544,0v-2.272h4.544v11.36A2.273,2.273,0,0,0,62.56,274.177Z" transform="translate(-37.568 -187.839)" fill="#fff"/>
            <path id="Path_865" data-name="Path 865" d="M141.078,247.361V181.472a2.272,2.272,0,1,0-4.544,0v65.889a2.272,2.272,0,0,0,4.544,0Z" transform="translate(-100.181 -131.487)" fill="#fff"/>
            <path id="Path_866" data-name="Path 866" d="M104.672,390.21h77.25a2.272,2.272,0,1,0,0-4.544H161.473v-22.72h2.272a2.272,2.272,0,1,0,0-4.544h-40.9a2.272,2.272,0,1,0,0,4.544h2.272v22.72H104.672a2.272,2.272,0,0,0,0,4.544Zm40.9-13.632a2.272,2.272,0,1,0,0-4.544v-9.088h11.36v22.72h-11.36Zm-15.9-13.632h11.36v9.088a2.272,2.272,0,1,0,0,4.544v9.088h-11.36Z" transform="translate(-75.135 -262.976)" fill="#fff"/>
            <path id="Path_867" data-name="Path 867" d="M420.961,366.933h-9.088A2.273,2.273,0,0,0,409.6,369.2v13.632a2.273,2.273,0,0,0,2.272,2.272h9.088a2.273,2.273,0,0,0,2.272-2.272V369.2A2.273,2.273,0,0,0,420.961,366.933Zm-2.272,13.632h-4.544v-9.088h4.544Z" transform="translate(-300.543 -269.235)" fill="#fff"/>
            <path id="Path_868" data-name="Path 868" d="M420.961,264.533h-9.088A2.273,2.273,0,0,0,409.6,266.8v13.632a2.273,2.273,0,0,0,2.272,2.272h9.088a2.273,2.273,0,0,0,2.272-2.272V266.8A2.273,2.273,0,0,0,420.961,264.533Zm-2.272,13.632h-4.544v-9.088h4.544Z" transform="translate(-300.543 -194.1)" fill="#fff"/>
            <path id="Path_869" data-name="Path 869" d="M165.965,494.933H70.539a2.272,2.272,0,0,0,0,4.544h95.426a2.272,2.272,0,0,0,0-4.544Z" transform="translate(-50.091 -363.154)" fill="#fff"/>
            <path id="Path_870" data-name="Path 870" d="M422.071,187.733A2.273,2.273,0,0,0,419.8,190v2.272H394.806a2.272,2.272,0,0,0,0,4.544H419.8V271.8a2.272,2.272,0,0,0,4.544,0V190A2.273,2.273,0,0,0,422.071,187.733Z" transform="translate(-288.02 -137.748)" fill="#fff"/>
            <path id="Path_871" data-name="Path 871" d="M273.067,271.9a2.273,2.273,0,0,0,2.272,2.272h9.088A2.273,2.273,0,0,0,286.7,271.9V258.272A2.273,2.273,0,0,0,284.427,256h-9.088a2.273,2.273,0,0,0-2.272,2.272Zm4.544-11.36h4.544v9.088h-4.544Z" transform="translate(-200.361 -187.839)" fill="#fff"/>
            <path id="Path_872" data-name="Path 872" d="M22.72,336.737c0-.3-.129-29.537-11.36-29.537S0,336.441,0,336.737a11.38,11.38,0,0,0,9.088,11.131v11.59a2.272,2.272,0,0,0,4.544,0v-11.59A11.38,11.38,0,0,0,22.72,336.737Zm-11.36,6.816a6.825,6.825,0,0,1-6.816-6.816c0-11.319,3.04-24.993,6.816-24.993s6.816,13.673,6.816,24.993A6.825,6.825,0,0,1,11.36,343.553Z" transform="translate(0 -225.406)" fill="#fff"/>
            <path id="Path_873" data-name="Path 873" d="M362.945,241.1V172.939a2.272,2.272,0,0,0-4.544,0V241.1a2.272,2.272,0,0,0,4.544,0Z" transform="translate(-262.975 -125.226)" fill="#fff"/>
            <path id="Path_874" data-name="Path 874" d="M275.339,171.777h9.088a2.273,2.273,0,0,0,2.272-2.272V155.873a2.273,2.273,0,0,0-2.272-2.272h-9.088a2.273,2.273,0,0,0-2.272,2.272v13.632A2.273,2.273,0,0,0,275.339,171.777Zm2.272-13.632h4.544v9.088h-4.544Z" transform="translate(-200.361 -112.704)" fill="#fff"/>
            <path id="Path_875" data-name="Path 875" d="M2.272,217.271A2.273,2.273,0,0,0,4.544,215V196.823H29.537a2.272,2.272,0,1,0,0-4.544H4.544v-2.272a2.272,2.272,0,0,0-4.544,0V215A2.273,2.273,0,0,0,2.272,217.271Z" transform="translate(0 -137.749)" fill="#fff"/>
          </g>
        </g>
      </g>
      <g id="university-2" data-name="university" transform="translate(-39.749 577.701)" opacity="0.09">
        <g id="Group_302-2" data-name="Group 302" transform="translate(0)">
          <g id="Group_301-2" data-name="Group 301">
            <path id="Path_861-2" data-name="Path 861" d="M187.733,266.392a1.485,1.485,0,0,0,1.484,1.484h5.938a1.485,1.485,0,0,0,1.484-1.484v-8.907A1.485,1.485,0,0,0,195.156,256h-5.938a1.485,1.485,0,0,0-1.484,1.484v8.907Zm2.969-7.423h2.969v5.938H190.7Z" transform="translate(-155.073 -211.464)" fill="#fff"/>
            <path id="Path_862-2" data-name="Path 862" d="M189.219,165.477h5.938a1.485,1.485,0,0,0,1.484-1.484v-8.907a1.485,1.485,0,0,0-1.484-1.484h-5.938a1.485,1.485,0,0,0-1.484,1.484v8.907A1.485,1.485,0,0,0,189.219,165.477Zm1.484-8.907h2.969v5.938H190.7Z" transform="translate(-155.074 -126.879)" fill="#fff"/>
            <path id="Path_863-2" data-name="Path 863" d="M121.715,27.994l21.5-12.9,21.5,12.9a1.484,1.484,0,0,0,1.529-2.545L144.7,12.52V2.969h7.423V5.938h-4.454a1.484,1.484,0,0,0,0,2.969h5.938a1.485,1.485,0,0,0,1.484-1.484V1.484A1.485,1.485,0,0,0,153.61,0H143.219a1.485,1.485,0,0,0-1.484,1.484V12.52L120.186,25.449a1.484,1.484,0,0,0,1.529,2.544Z" transform="translate(-98.683)" fill="#fff"/>
            <path id="Path_864-2" data-name="Path 864" d="M58.623,267.877a1.485,1.485,0,0,0,1.484-1.484v-8.907A1.485,1.485,0,0,0,58.623,256H52.684a1.485,1.485,0,0,0-1.484,1.484v2.969a1.484,1.484,0,0,0,2.969,0V258.97h2.969v7.423A1.485,1.485,0,0,0,58.623,267.877Z" transform="translate(-42.293 -211.465)" fill="#fff"/>
            <path id="Path_865-2" data-name="Path 865" d="M139.5,223.736V180.685a1.484,1.484,0,1,0-2.969,0v43.051a1.484,1.484,0,0,0,2.969,0Z" transform="translate(-112.781 -148.025)" fill="#fff"/>
            <path id="Path_866-2" data-name="Path 866" d="M103.884,379.185h50.474a1.484,1.484,0,1,0,0-2.969H141V361.371h1.484a1.484,1.484,0,0,0,0-2.969H115.761a1.484,1.484,0,1,0,0,2.969h1.484v14.845H103.884a1.485,1.485,0,0,0,0,2.969Zm26.722-8.907a1.484,1.484,0,1,0,0-2.969v-5.938h7.423v14.845h-7.423Zm-10.392-8.907h7.423v5.938a1.484,1.484,0,1,0,0,2.969v5.938h-7.423Z" transform="translate(-84.586 -296.051)" fill="#fff"/>
            <path id="Path_867-2" data-name="Path 867" d="M417.023,366.933h-5.938a1.485,1.485,0,0,0-1.484,1.484v8.907a1.485,1.485,0,0,0,1.484,1.484h5.938a1.485,1.485,0,0,0,1.485-1.484v-8.907A1.485,1.485,0,0,0,417.023,366.933Zm-1.484,8.907H412.57V369.9h2.969Z" transform="translate(-338.344 -303.098)" fill="#fff"/>
            <path id="Path_868-2" data-name="Path 868" d="M417.023,264.533h-5.938a1.485,1.485,0,0,0-1.484,1.484v8.907a1.485,1.485,0,0,0,1.484,1.484h5.938a1.485,1.485,0,0,0,1.485-1.484v-8.907A1.485,1.485,0,0,0,417.023,264.533Zm-1.484,8.907H412.57V267.5h2.969Z" transform="translate(-338.344 -218.513)" fill="#fff"/>
            <path id="Path_869-2" data-name="Path 869" d="M132.1,494.933H69.751a1.485,1.485,0,0,0,0,2.969H132.1a1.485,1.485,0,0,0,0-2.969Z" transform="translate(-56.391 -408.83)" fill="#fff"/>
            <path id="Path_870-2" data-name="Path 870" d="M411.833,187.733a1.485,1.485,0,0,0-1.485,1.484V190.7h-16.33a1.484,1.484,0,0,0,0,2.969h16.33V242.66a1.484,1.484,0,0,0,2.969,0V189.217A1.485,1.485,0,0,0,411.833,187.733Z" transform="translate(-324.246 -155.073)" fill="#fff"/>
            <path id="Path_871-2" data-name="Path 871" d="M273.067,266.392a1.485,1.485,0,0,0,1.484,1.484h5.938a1.485,1.485,0,0,0,1.484-1.484v-8.907A1.485,1.485,0,0,0,280.489,256h-5.938a1.485,1.485,0,0,0-1.484,1.484Zm2.969-7.423h2.969v5.938h-2.969Z" transform="translate(-225.562 -211.464)" fill="#fff"/>
            <path id="Path_872-2" data-name="Path 872" d="M14.845,326.5c0-.193-.085-19.3-7.423-19.3S0,326.306,0,326.5a7.435,7.435,0,0,0,5.938,7.273v7.573a1.484,1.484,0,0,0,2.969,0v-7.573A7.435,7.435,0,0,0,14.845,326.5Zm-7.423,4.454A4.459,4.459,0,0,1,2.969,326.5c0-7.4,1.986-16.33,4.454-16.33s4.454,8.934,4.454,16.33A4.459,4.459,0,0,1,7.423,330.952Z" transform="translate(0 -253.757)" fill="#fff"/>
            <path id="Path_873-2" data-name="Path 873" d="M361.37,216.687V172.151a1.484,1.484,0,0,0-2.969,0v44.536a1.484,1.484,0,0,0,2.969,0Z" transform="translate(-296.051 -140.976)" fill="#fff"/>
            <path id="Path_874-2" data-name="Path 874" d="M274.551,165.477h5.938a1.485,1.485,0,0,0,1.484-1.484v-8.907a1.485,1.485,0,0,0-1.484-1.484h-5.938a1.485,1.485,0,0,0-1.484,1.484v8.907A1.485,1.485,0,0,0,274.551,165.477Zm1.484-8.907h2.969v5.938h-2.969Z" transform="translate(-225.562 -126.879)" fill="#fff"/>
            <path id="Path_875-2" data-name="Path 875" d="M1.484,207.034a1.485,1.485,0,0,0,1.484-1.484V193.673H19.3a1.484,1.484,0,0,0,0-2.969H2.969v-1.484a1.485,1.485,0,0,0-2.969,0v16.33A1.485,1.485,0,0,0,1.484,207.034Z" transform="translate(0 -155.075)" fill="#fff"/>
          </g>
        </g>
      </g>
      <g id="cityscape" transform="translate(300.104 574.449)" opacity="0.09">
        <g id="Group_290" data-name="Group 290" transform="translate(0)">
          <g id="Group_289" data-name="Group 289">
            <path id="Path_780" data-name="Path 780" d="M310.279,325.806a1.539,1.539,0,1,0-3.078,0v3.078a1.539,1.539,0,1,0,3.078,0Z" transform="translate(-251.798 -265.786)" fill="#fff"/>
            <path id="Path_781" data-name="Path 781" d="M308.739,426.667a1.54,1.54,0,0,0-1.539,1.539v6.156a1.539,1.539,0,0,0,3.078,0v-6.156A1.539,1.539,0,0,0,308.739,426.667Z" transform="translate(-251.797 -349.718)" fill="#fff"/>
            <path id="Path_782" data-name="Path 782" d="M344.412,223.406a1.539,1.539,0,0,0-3.078,0v3.078a1.539,1.539,0,1,0,3.078,0Z" transform="translate(-279.775 -181.853)" fill="#fff"/>
            <path id="Path_783" data-name="Path 783" d="M310.279,274.606a1.539,1.539,0,1,0-3.078,0v3.078a1.539,1.539,0,1,0,3.078,0Z" transform="translate(-251.798 -223.82)" fill="#fff"/>
            <path id="Path_784" data-name="Path 784" d="M310.278,377.006a1.539,1.539,0,0,0-3.078,0v3.078a1.539,1.539,0,0,0,3.078,0v-3.078Z" transform="translate(-251.797 -307.752)" fill="#fff"/>
            <path id="Path_785" data-name="Path 785" d="M344.412,274.606a1.539,1.539,0,1,0-3.078,0v3.078a1.539,1.539,0,1,0,3.078,0Z" transform="translate(-279.775 -223.82)" fill="#fff"/>
            <path id="Path_786" data-name="Path 786" d="M276.145,223.406a1.539,1.539,0,0,0-3.078,0v3.078a1.539,1.539,0,1,0,3.078,0Z" transform="translate(-223.82 -181.853)" fill="#fff"/>
            <path id="Path_787" data-name="Path 787" d="M310.279,223.406a1.539,1.539,0,1,0-3.078,0v3.078a1.539,1.539,0,1,0,3.078,0Z" transform="translate(-251.798 -181.853)" fill="#fff"/>
            <path id="Path_788" data-name="Path 788" d="M344.412,124.084v-3.078a1.539,1.539,0,0,0-3.078,0v3.078a1.539,1.539,0,1,0,3.078,0Z" transform="translate(-279.775 -97.921)" fill="#fff"/>
            <path id="Path_789" data-name="Path 789" d="M276.145,274.606a1.539,1.539,0,1,0-3.078,0v3.078a1.539,1.539,0,1,0,3.078,0Z" transform="translate(-223.82 -223.82)" fill="#fff"/>
            <path id="Path_790" data-name="Path 790" d="M378.545,121.006a1.539,1.539,0,0,0-3.078,0v3.078a1.539,1.539,0,1,0,3.078,0Z" transform="translate(-307.752 -97.921)" fill="#fff"/>
            <path id="Path_791" data-name="Path 791" d="M274.606,324.267a1.539,1.539,0,0,0-1.539,1.539v3.078a1.539,1.539,0,0,0,3.078,0v-3.078A1.539,1.539,0,0,0,274.606,324.267Z" transform="translate(-223.82 -265.786)" fill="#fff"/>
            <path id="Path_792" data-name="Path 792" d="M412.678,377.006a1.539,1.539,0,0,0-3.078,0v3.078a1.539,1.539,0,0,0,3.078,0v-3.078Z" transform="translate(-335.729 -307.752)" fill="#fff"/>
            <path id="Path_793" data-name="Path 793" d="M411.139,426.667a1.54,1.54,0,0,0-1.539,1.539v6.156a1.539,1.539,0,0,0,3.078,0v-6.156A1.539,1.539,0,0,0,411.139,426.667Z" transform="translate(-335.729 -349.718)" fill="#fff"/>
            <path id="Path_794" data-name="Path 794" d="M445.273,324.267a1.54,1.54,0,0,0-1.539,1.539v3.078a1.539,1.539,0,0,0,3.078,0v-3.078A1.539,1.539,0,0,0,445.273,324.267Z" transform="translate(-363.707 -265.786)" fill="#fff"/>
            <path id="Path_795" data-name="Path 795" d="M308.739,69.668a1.54,1.54,0,0,0,1.539-1.539V61.636l15.39-3.848v25.73a1.542,1.542,0,0,0,1,1.442L337.98,89.2v15.862a1.539,1.539,0,1,0,3.078,0V88.136a1.542,1.542,0,0,0-1-1.442l-11.313-4.241V52.739a1.539,1.539,0,0,0-3.078,0v1.876l-17.3,4.326a1.538,1.538,0,0,0-1.165,1.493v7.695A1.54,1.54,0,0,0,308.739,69.668Z" transform="translate(-251.797 -41.966)" fill="#fff"/>
            <path id="Path_796" data-name="Path 796" d="M446.812,274.606a1.539,1.539,0,0,0-3.078,0v3.078a1.539,1.539,0,0,0,3.078,0Z" transform="translate(-363.707 -223.82)" fill="#fff"/>
            <path id="Path_797" data-name="Path 797" d="M412.679,274.606a1.539,1.539,0,1,0-3.078,0v3.078a1.539,1.539,0,1,0,3.078,0Z" transform="translate(-335.73 -223.82)" fill="#fff"/>
            <path id="Path_798" data-name="Path 798" d="M344.412,377.006a1.539,1.539,0,0,0-3.078,0v3.078a1.539,1.539,0,0,0,3.078,0Z" transform="translate(-279.775 -307.752)" fill="#fff"/>
            <path id="Path_799" data-name="Path 799" d="M412.679,325.806a1.539,1.539,0,0,0-3.078,0v3.078a1.539,1.539,0,0,0,3.078,0Z" transform="translate(-335.73 -265.786)" fill="#fff"/>
            <path id="Path_800" data-name="Path 800" d="M342.873,426.667a1.54,1.54,0,0,0-1.539,1.539v6.156a1.539,1.539,0,0,0,3.078,0v-6.156A1.54,1.54,0,0,0,342.873,426.667Z" transform="translate(-279.775 -349.718)" fill="#fff"/>
            <path id="Path_801" data-name="Path 801" d="M344.412,325.806a1.539,1.539,0,0,0-3.078,0v3.078a1.539,1.539,0,0,0,3.078,0Z" transform="translate(-279.775 -265.786)" fill="#fff"/>
            <path id="Path_802" data-name="Path 802" d="M265.1,212.082a1.54,1.54,0,0,0,1.539-1.539V161.3a1.539,1.539,0,0,0-1.165-1.493l-24.624-6.156a1.54,1.54,0,0,0-1.913,1.493V189a1.539,1.539,0,0,0,3.078,0V157.111l21.546,5.386v48.045A1.54,1.54,0,0,0,265.1,212.082Z" transform="translate(-195.842 -125.899)" fill="#fff"/>
            <path id="Path_803" data-name="Path 803" d="M173.745,172.206a1.539,1.539,0,1,0-3.078,0v3.078a1.539,1.539,0,0,0,3.078,0Z" transform="translate(-139.887 -139.887)" fill="#fff"/>
            <path id="Path_804" data-name="Path 804" d="M173.745,121.006a1.539,1.539,0,0,0-3.078,0v3.078a1.539,1.539,0,1,0,3.078,0Z" transform="translate(-139.887 -97.921)" fill="#fff"/>
            <path id="Path_805" data-name="Path 805" d="M105.478,377.006a1.539,1.539,0,0,0-3.078,0v3.078a1.539,1.539,0,0,0,3.078,0v-3.078Z" transform="translate(-83.932 -307.752)" fill="#fff"/>
            <path id="Path_806" data-name="Path 806" d="M35.672,251.246a1.539,1.539,0,0,0,1.539-1.539v-7.7H52.6v38.474a1.539,1.539,0,0,0,3.078,0V240.473a1.54,1.54,0,0,0-1.539-1.539H35.672a1.54,1.54,0,0,0-1.539,1.539v9.234A1.54,1.54,0,0,0,35.672,251.246Z" transform="translate(-27.977 -195.842)" fill="#fff"/>
            <path id="Path_807" data-name="Path 807" d="M136.533,172.206v3.078a1.539,1.539,0,0,0,3.078,0v-3.078a1.539,1.539,0,1,0-3.078,0Z" transform="translate(-111.909 -139.887)" fill="#fff"/>
            <path id="Path_808" data-name="Path 808" d="M173.745,69.806a1.539,1.539,0,1,0-3.078,0v3.078a1.539,1.539,0,0,0,3.078,0Z" transform="translate(-139.887 -55.955)" fill="#fff"/>
            <path id="Path_809" data-name="Path 809" d="M103.939,426.667a1.54,1.54,0,0,0-1.539,1.539v6.156a1.539,1.539,0,0,0,3.078,0v-6.156A1.539,1.539,0,0,0,103.939,426.667Z" transform="translate(-83.932 -349.718)" fill="#fff"/>
            <path id="Path_810" data-name="Path 810" d="M90.8,355.046H87.722v-9.452a6.156,6.156,0,1,0-3.078,0v9.452H46.169v-6.311a7.695,7.695,0,1,0-3.078,0v6.311H9.234V339.5a7.695,7.695,0,1,0-3.078,0v15.545H1.539a1.539,1.539,0,0,0,0,3.078H90.8a1.539,1.539,0,0,0,0-3.078ZM3.078,331.961a4.617,4.617,0,1,1,4.617,4.617A4.623,4.623,0,0,1,3.078,331.961Zm36.936,9.234a4.617,4.617,0,1,1,4.617,4.617A4.623,4.623,0,0,1,40.014,341.195ZM83.1,339.656a3.078,3.078,0,1,1,3.078,3.078A3.081,3.081,0,0,1,83.1,339.656Z" transform="translate(0 -265.785)" fill="#fff"/>
            <path id="Path_811" data-name="Path 811" d="M68.267,428.206v6.156a1.539,1.539,0,0,0,3.078,0v-6.156a1.539,1.539,0,1,0-3.078,0Z" transform="translate(-55.955 -349.718)" fill="#fff"/>
            <path id="Path_812" data-name="Path 812" d="M105.479,274.606a1.539,1.539,0,1,0-3.078,0v3.078a1.539,1.539,0,1,0,3.078,0Z" transform="translate(-83.933 -223.82)" fill="#fff"/>
            <path id="Path_813" data-name="Path 813" d="M105.479,325.806a1.539,1.539,0,0,0-3.078,0v3.078a1.539,1.539,0,0,0,3.078,0Z" transform="translate(-83.933 -265.786)" fill="#fff"/>
            <path id="Path_814" data-name="Path 814" d="M68.267,274.606v3.078a1.539,1.539,0,1,0,3.078,0v-3.078a1.539,1.539,0,1,0-3.078,0Z" transform="translate(-55.955 -223.82)" fill="#fff"/>
            <path id="Path_815" data-name="Path 815" d="M173.745,325.806a1.539,1.539,0,0,0-3.078,0v3.078a1.539,1.539,0,0,0,3.078,0Z" transform="translate(-139.887 -265.786)" fill="#fff"/>
            <path id="Path_816" data-name="Path 816" d="M207.879,223.406a1.539,1.539,0,0,0-3.078,0v3.078a1.539,1.539,0,1,0,3.078,0Z" transform="translate(-167.865 -181.853)" fill="#fff"/>
            <path id="Path_817" data-name="Path 817" d="M207.879,172.206a1.539,1.539,0,0,0-3.078,0v3.078a1.539,1.539,0,0,0,3.078,0Z" transform="translate(-167.865 -139.887)" fill="#fff"/>
            <path id="Path_818" data-name="Path 818" d="M207.879,274.606a1.539,1.539,0,1,0-3.078,0v3.078a1.539,1.539,0,1,0,3.078,0Z" transform="translate(-167.865 -223.82)" fill="#fff"/>
            <path id="Path_819" data-name="Path 819" d="M206.339,324.267a1.539,1.539,0,0,0-1.539,1.539v3.078a1.539,1.539,0,0,0,3.078,0v-3.078A1.539,1.539,0,0,0,206.339,324.267Z" transform="translate(-167.864 -265.786)" fill="#fff"/>
            <path id="Path_820" data-name="Path 820" d="M207.879,121.006a1.539,1.539,0,0,0-3.078,0v3.078a1.539,1.539,0,0,0,3.078,0Z" transform="translate(-167.865 -97.921)" fill="#fff"/>
            <path id="Path_821" data-name="Path 821" d="M173.745,377.006a1.539,1.539,0,0,0-3.078,0v3.078a1.539,1.539,0,0,0,3.078,0Z" transform="translate(-139.887 -307.752)" fill="#fff"/>
            <path id="Path_822" data-name="Path 822" d="M103.94,40.014a1.54,1.54,0,0,0,1.539-1.539V27.114l5.3-2.652a1.541,1.541,0,0,0,.851-1.377v-12.9l7.695-3.847,7.695,3.847v12.9a1.539,1.539,0,0,0,3.078,0V9.234a1.54,1.54,0,0,0-.851-1.377l-8.383-4.191V1.539a1.539,1.539,0,1,0-3.078,0V3.666l-8.383,4.191a1.541,1.541,0,0,0-.851,1.377v12.9l-5.3,2.652a1.541,1.541,0,0,0-.851,1.377V38.474A1.539,1.539,0,0,0,103.94,40.014Z" transform="translate(-83.933)" fill="#fff"/>
            <path id="Path_823" data-name="Path 823" d="M173.745,274.606a1.539,1.539,0,1,0-3.078,0v3.078a1.539,1.539,0,1,0,3.078,0Z" transform="translate(-139.887 -223.82)" fill="#fff"/>
            <path id="Path_824" data-name="Path 824" d="M172.206,426.667a1.54,1.54,0,0,0-1.539,1.539v6.156a1.539,1.539,0,0,0,3.078,0v-6.156A1.54,1.54,0,0,0,172.206,426.667Z" transform="translate(-139.887 -349.718)" fill="#fff"/>
            <path id="Path_825" data-name="Path 825" d="M207.879,69.806a1.539,1.539,0,1,0-3.078,0v3.078a1.539,1.539,0,0,0,3.078,0Z" transform="translate(-167.865 -55.955)" fill="#fff"/>
            <path id="Path_826" data-name="Path 826" d="M173.745,223.406a1.539,1.539,0,0,0-3.078,0v3.078a1.539,1.539,0,1,0,3.078,0Z" transform="translate(-139.887 -181.853)" fill="#fff"/>
          </g>
        </g>
      </g>
      <g id="skyline" transform="translate(99.77 606.465)" opacity="0.09">
        <g id="Group_300" data-name="Group 300" transform="translate(0)">
          <g id="Group_299" data-name="Group 299">
            <path id="Path_831" data-name="Path 831" d="M76.836,58.226H75.144V5.078a1.015,1.015,0,0,0-1.016-1.016H55.171a1.015,1.015,0,0,0-1.016,1.016v4.4H52.124v-4.4a1.015,1.015,0,0,0-1.016-1.016h-4.4V1.016a1.016,1.016,0,1,0-2.031,0V4.062h-4.4A1.015,1.015,0,0,0,39.26,5.078v4.4H36.214A1.015,1.015,0,0,0,35.2,10.494v8.463H26.735a1.015,1.015,0,0,0-1.016,1.016V58.226H24.027a1.016,1.016,0,0,0,0,2.031h52.81a1.016,1.016,0,0,0,0-2.031ZM41.291,6.093h8.8V9.479h-8.8ZM37.906,58.226h-.677V56.533a1.016,1.016,0,0,0-2.031,0v1.693h-.677V54.841h3.385Zm6.77-26.066V58.226H39.937v-4.4a1.016,1.016,0,0,0-1.016-1.016H33.505a1.015,1.015,0,0,0-1.016,1.016v4.4H27.75V20.988H44.676Zm1.016-13.2H37.229V11.51H54.155V31.144H46.708V27.759h3.047a1.016,1.016,0,1,0,0-2.031H46.708V22.343h3.047a1.016,1.016,0,1,0,0-2.031H46.708v-.338A1.016,1.016,0,0,0,45.692,18.957ZM63.634,58.226H46.708V33.175H63.634Zm9.479,0H65.665V30.805a1.016,1.016,0,0,0-2.031,0v.338H61.6v-.338a1.016,1.016,0,0,0-2.031,0v.338H56.186V6.093H73.113V58.226Z" transform="translate(-23.011)" fill="#fff"/>
            <path id="Path_832" data-name="Path 832" d="M254.14,320.137a1.016,1.016,0,0,0,1.016-1.016V300.165a1.016,1.016,0,0,0-2.031,0v18.957A1.015,1.015,0,0,0,254.14,320.137Z" transform="translate(-226.042 -263.942)" fill="#fff"/>
            <path id="Path_833" data-name="Path 833" d="M288.657,320.137a1.016,1.016,0,0,0,1.016-1.016V300.165a1.016,1.016,0,0,0-2.031,0v18.957A1.015,1.015,0,0,0,288.657,320.137Z" transform="translate(-256.497 -263.942)" fill="#fff"/>
            <path id="Path_834" data-name="Path 834" d="M323.173,320.137a1.016,1.016,0,0,0,1.016-1.016V300.165a1.016,1.016,0,1,0-2.031,0v18.957A1.015,1.015,0,0,0,323.173,320.137Z" transform="translate(-286.951 -263.942)" fill="#fff"/>
            <path id="Path_835" data-name="Path 835" d="M334.679,83.925a1.015,1.015,0,0,0,1.016-1.016V81.556a1.016,1.016,0,0,0-2.031,0V82.91A1.015,1.015,0,0,0,334.679,83.925Z" transform="translate(-297.102 -71.061)" fill="#fff"/>
            <path id="Path_836" data-name="Path 836" d="M369.2,83.925a1.015,1.015,0,0,0,1.016-1.016V81.556a1.016,1.016,0,0,0-2.031,0V82.91A1.015,1.015,0,0,0,369.2,83.925Z" transform="translate(-327.557 -71.061)" fill="#fff"/>
            <path id="Path_837" data-name="Path 837" d="M403.713,83.925a1.015,1.015,0,0,0,1.016-1.016V81.556a1.016,1.016,0,0,0-2.031,0V82.91A1.015,1.015,0,0,0,403.713,83.925Z" transform="translate(-358.012 -71.061)" fill="#fff"/>
            <path id="Path_838" data-name="Path 838" d="M334.679,141.452a1.015,1.015,0,0,0,1.016-1.016v-1.354a1.016,1.016,0,0,0-2.031,0v1.354A1.015,1.015,0,0,0,334.679,141.452Z" transform="translate(-297.102 -121.818)" fill="#fff"/>
            <path id="Path_839" data-name="Path 839" d="M369.2,141.452a1.015,1.015,0,0,0,1.016-1.016v-1.354a1.016,1.016,0,0,0-2.031,0v1.354A1.015,1.015,0,0,0,369.2,141.452Z" transform="translate(-327.557 -121.818)" fill="#fff"/>
            <path id="Path_840" data-name="Path 840" d="M403.713,141.452a1.015,1.015,0,0,0,1.016-1.016v-1.354a1.016,1.016,0,0,0-2.031,0v1.354A1.015,1.015,0,0,0,403.713,141.452Z" transform="translate(-358.012 -121.818)" fill="#fff"/>
            <path id="Path_841" data-name="Path 841" d="M334.679,198.981a1.015,1.015,0,0,0,1.016-1.016v-1.354a1.016,1.016,0,1,0-2.031,0v1.354A1.016,1.016,0,0,0,334.679,198.981Z" transform="translate(-297.102 -172.576)" fill="#fff"/>
            <path id="Path_842" data-name="Path 842" d="M369.2,198.981a1.015,1.015,0,0,0,1.016-1.016v-1.354a1.016,1.016,0,0,0-2.031,0v1.354A1.016,1.016,0,0,0,369.2,198.981Z" transform="translate(-327.557 -172.576)" fill="#fff"/>
            <path id="Path_843" data-name="Path 843" d="M403.713,198.981a1.015,1.015,0,0,0,1.016-1.016v-1.354a1.016,1.016,0,0,0-2.031,0v1.354A1.016,1.016,0,0,0,403.713,198.981Z" transform="translate(-358.012 -172.576)" fill="#fff"/>
            <path id="Path_844" data-name="Path 844" d="M93.061,221.992a1.015,1.015,0,0,0,1.016-1.016v-1.354a1.016,1.016,0,0,0-2.031,0v1.354A1.016,1.016,0,0,0,93.061,221.992Z" transform="translate(-83.92 -192.879)" fill="#fff"/>
            <path id="Path_845" data-name="Path 845" d="M127.578,221.992a1.015,1.015,0,0,0,1.016-1.016v-1.354a1.016,1.016,0,0,0-2.031,0v1.354A1.015,1.015,0,0,0,127.578,221.992Z" transform="translate(-114.375 -192.879)" fill="#fff"/>
            <path id="Path_846" data-name="Path 846" d="M162.095,221.992a1.015,1.015,0,0,0,1.016-1.016v-1.354a1.016,1.016,0,0,0-2.031,0v1.354A1.015,1.015,0,0,0,162.095,221.992Z" transform="translate(-144.83 -192.879)" fill="#fff"/>
            <path id="Path_847" data-name="Path 847" d="M93.061,279.52a1.015,1.015,0,0,0,1.016-1.016v-1.354a1.016,1.016,0,0,0-2.031,0V278.5A1.016,1.016,0,0,0,93.061,279.52Z" transform="translate(-83.92 -243.637)" fill="#fff"/>
            <path id="Path_848" data-name="Path 848" d="M127.578,279.52a1.015,1.015,0,0,0,1.016-1.016v-1.354a1.016,1.016,0,0,0-2.031,0V278.5A1.015,1.015,0,0,0,127.578,279.52Z" transform="translate(-114.375 -243.637)" fill="#fff"/>
            <path id="Path_849" data-name="Path 849" d="M162.095,279.52a1.015,1.015,0,0,0,1.016-1.016v-1.354a1.016,1.016,0,0,0-2.031,0V278.5A1.015,1.015,0,0,0,162.095,279.52Z" transform="translate(-144.83 -243.637)" fill="#fff"/>
            <path id="Path_850" data-name="Path 850" d="M93.061,337.048a1.015,1.015,0,0,0,1.016-1.016v-1.354a1.016,1.016,0,1,0-2.031,0v1.354A1.016,1.016,0,0,0,93.061,337.048Z" transform="translate(-83.92 -294.394)" fill="#fff"/>
            <path id="Path_851" data-name="Path 851" d="M127.578,337.048a1.015,1.015,0,0,0,1.016-1.016v-1.354a1.016,1.016,0,1,0-2.031,0v1.354A1.015,1.015,0,0,0,127.578,337.048Z" transform="translate(-114.375 -294.394)" fill="#fff"/>
            <path id="Path_852" data-name="Path 852" d="M162.095,337.048a1.015,1.015,0,0,0,1.016-1.016v-1.354a1.016,1.016,0,1,0-2.031,0v1.354A1.015,1.015,0,0,0,162.095,337.048Z" transform="translate(-144.83 -294.394)" fill="#fff"/>
            <path id="Path_853" data-name="Path 853" d="M93.061,394.576a1.015,1.015,0,0,0,1.016-1.016v-1.354a1.016,1.016,0,0,0-2.031,0v1.354A1.015,1.015,0,0,0,93.061,394.576Z" transform="translate(-83.92 -345.152)" fill="#fff"/>
            <path id="Path_854" data-name="Path 854" d="M127.578,394.576a1.015,1.015,0,0,0,1.016-1.016v-1.354a1.016,1.016,0,0,0-2.031,0v1.354A1.015,1.015,0,0,0,127.578,394.576Z" transform="translate(-114.375 -345.152)" fill="#fff"/>
            <path id="Path_855" data-name="Path 855" d="M162.095,394.576a1.015,1.015,0,0,0,1.016-1.016v-1.354a1.016,1.016,0,0,0-2.031,0v1.354A1.015,1.015,0,0,0,162.095,394.576Z" transform="translate(-144.83 -345.152)" fill="#fff"/>
            <path id="Path_856" data-name="Path 856" d="M403.713,256.509a1.015,1.015,0,0,0,1.016-1.016V254.14a1.016,1.016,0,0,0-2.031,0v1.354A1.016,1.016,0,0,0,403.713,256.509Z" transform="translate(-358.012 -223.334)" fill="#fff"/>
            <path id="Path_857" data-name="Path 857" d="M403.713,314.037a1.015,1.015,0,0,0,1.016-1.016v-1.354a1.016,1.016,0,1,0-2.031,0v1.354A1.016,1.016,0,0,0,403.713,314.037Z" transform="translate(-358.012 -274.091)" fill="#fff"/>
            <path id="Path_858" data-name="Path 858" d="M403.713,371.565a1.015,1.015,0,0,0,1.016-1.016V369.2a1.016,1.016,0,1,0-2.031,0v1.354A1.016,1.016,0,0,0,403.713,371.565Z" transform="translate(-358.012 -324.849)" fill="#fff"/>
            <path id="Path_859" data-name="Path 859" d="M403.713,429.093a1.015,1.015,0,0,0,1.016-1.016v-1.354a1.016,1.016,0,0,0-2.031,0v1.354A1.016,1.016,0,0,0,403.713,429.093Z" transform="translate(-358.012 -375.607)" fill="#fff"/>
            <path id="Path_860" data-name="Path 860" d="M182.74,127.578a1.016,1.016,0,0,0-1.016-1.016H173.6a1.016,1.016,0,0,0,0,2.031h8.125A1.015,1.015,0,0,0,182.74,127.578Z" transform="translate(-154.981 -111.667)" fill="#fff"/>
          </g>
        </g>
      </g>
      <g id="factory" transform="translate(53.368 622.5)" opacity="0.09">
        <g id="Group_292" data-name="Group 292" transform="translate(0 0)">
          <g id="Group_291" data-name="Group 291">
            <path id="Path_827" data-name="Path 827" d="M57.55,19.566a.749.749,0,0,0-.743-.009L54.747,20.7,54.176.728A.749.749,0,0,0,53.428,0h-5.24a.749.749,0,0,0-.749.728l-.7,24.424-2.3,1.273V20.211a.749.749,0,0,0-1.112-.654L30.971,26.424V20.211a.749.749,0,0,0-1.112-.654L16.386,27.042A.748.748,0,0,0,16,27.7V44.165a.749.749,0,0,0,.749.749H57.17a.749.749,0,0,0,.749-.749V20.211A.748.748,0,0,0,57.55,19.566ZM48.915,1.5H52.7l.043,1.5H48.873Zm-.086,2.994h3.957l.487,17.029L48.263,24.3ZM36.211,43.416H31.72V39.673h4.491Zm5.988,0H37.708V39.673H42.2Zm14.223,0H43.7V38.925a.749.749,0,0,0-.749-.749H30.971a.749.749,0,0,0-.749.749v4.491H17.5V28.137l11.977-6.654V27.7a.749.749,0,0,0,1.112.654l12.362-6.867V27.7a.749.749,0,0,0,1.112.654l7.06-3.922L54.4,22.606l2.021-1.123Z" transform="translate(-16 0)" fill="#fff"/>
          </g>
        </g>
        <g id="Group_294" data-name="Group 294" transform="translate(3.743 29.942)">
          <g id="Group_293" data-name="Group 293">
            <path id="Path_828" data-name="Path 828" d="M62.737,320H56.749a.749.749,0,0,0-.749.749v2.994a.749.749,0,0,0,.749.749h5.988a.749.749,0,0,0,.749-.749v-2.994A.749.749,0,0,0,62.737,320Zm-.749,2.994H57.5v-1.5h4.491Z" transform="translate(-56 -320)" fill="#fff"/>
          </g>
        </g>
        <g id="Group_296" data-name="Group 296" transform="translate(17.217 29.942)">
          <g id="Group_295" data-name="Group 295">
            <path id="Path_829" data-name="Path 829" d="M206.737,320h-5.988a.749.749,0,0,0-.749.749v2.994a.749.749,0,0,0,.749.749h5.988a.749.749,0,0,0,.749-.749v-2.994A.749.749,0,0,0,206.737,320Zm-.749,2.994H201.5v-1.5h4.491Z" transform="translate(-200 -320)" fill="#fff"/>
          </g>
        </g>
        <g id="Group_298" data-name="Group 298" transform="translate(30.691 29.942)">
          <g id="Group_297" data-name="Group 297">
            <path id="Path_830" data-name="Path 830" d="M350.737,320h-5.988a.749.749,0,0,0-.749.749v2.994a.749.749,0,0,0,.749.749h5.988a.749.749,0,0,0,.749-.749v-2.994A.749.749,0,0,0,350.737,320Zm-.749,2.994H345.5v-1.5h4.491Z" transform="translate(-344 -320)" fill="#fff"/>
          </g>
        </g>
      </g>
    </g>
  </g>
</svg>
