<svg id="logout" xmlns="http://www.w3.org/2000/svg" width="18.313" height="18.252" viewBox="0 0 18.313 18.252">
  <g id="Group_2213" data-name="Group 2213">
    <g id="Group_2212" data-name="Group 2212">
      <path id="Path_13799" data-name="Path 13799" d="M9.126,1.521H2.282a.761.761,0,0,0-.76.76V15.97a.761.761,0,0,0,.76.76H9.126a.761.761,0,0,1,0,1.521H2.282A2.284,2.284,0,0,1,0,15.97V2.281A2.284,2.284,0,0,1,2.282,0H9.126a.76.76,0,1,1,0,1.521Z" fill="#191919"/>
    </g>
  </g>
  <g id="Group_2215" data-name="Group 2215" transform="translate(6.084 3.803)">
    <g id="Group_2214" data-name="Group 2214">
      <path id="Path_13800" data-name="Path 13800" d="M12,5.865,7.378,10.428A.76.76,0,1,1,6.311,9.345l3.3-3.261H.76a.76.76,0,0,1,0-1.521H9.615L6.311,1.3A.76.76,0,1,1,7.378.219L12,4.782a.76.76,0,0,1,0,1.083Z" fill="#191919"/>
    </g>
  </g>
</svg>
