<svg xmlns="http://www.w3.org/2000/svg" width="17.243" height="17.242" viewBox="0 0 17.243 17.242">
  <path id="whatsup" d="M11.028,2.25a8.432,8.432,0,0,0-8.465,8.4,8.312,8.312,0,0,0,1.215,4.337L2.25,19.492,6.936,18a8.479,8.479,0,0,0,12.556-7.354A8.432,8.432,0,0,0,11.028,2.25Zm4.209,11.589a2.186,2.186,0,0,1-1.5.965c-.4.021-.408.308-2.573-.633A8.832,8.832,0,0,1,7.6,10.8a4.151,4.151,0,0,1-.8-2.25,2.4,2.4,0,0,1,.824-1.76.829.829,0,0,1,.586-.247c.17,0,.281-.005.407,0s.315-.026.479.409.556,1.507.606,1.616a.392.392,0,0,1,0,.376,1.47,1.47,0,0,1-.229.35c-.113.121-.238.271-.338.364s-.23.214-.112.434a6.477,6.477,0,0,0,1.146,1.529,5.906,5.906,0,0,0,1.7,1.128c.212.116.339.1.471-.036s.563-.606.716-.815.295-.168.49-.09,1.238.637,1.45.752.354.174.4.266A1.778,1.778,0,0,1,15.237,13.839Z" transform="translate(-2.25 -2.25)" fill="#2cb742"/>
</svg>
